PathFileType	4	(X/Y/Z)	C:/Users/beibeiliu/ov580/test_trc\sequence.9_training_dense_left.trc
DataRate	CameraRate	NumFrames	NumMarkers	Units	OrigDataRate	OrigDataStartFrame	OrigNumFrames
120	120	24	19	mm	120	126	200
Frame#	Time	ThumbCMC			ThumbMCP			ThumbIP			ThumbTip			IndexMCP			IndexPIP			IndexTip			MiddleMCP			MiddlePIP			MiddleTip			RingMCP			RingPIP			RingTip			PinkyMCP			PinkyPIP			PinkyTip			BackHand1			BackHand2			BackHand3	
		X0	Y0	Z0	X1	Y1	Z1	X2	Y2	Z2	X3	Y3	Z3	X4	Y4	Z4	X5	Y5	Z5	X6	Y6	Z6	X7	Y7	Z7	X8	Y8	Z8	X9	Y9	Z9	X10	Y10	Z10	X11	Y11	Z11	X12	Y12	Z12	X13	Y13	Z13	X14	Y14	Z14	X15	Y15	Z15	X16	Y16	Z16	X17	Y17	Z17	X18	Y18	Z18	
125	1.04167	-142	21.8077	147.941	-113.934	27.386	135.124	-96.6872	36.7163	115.243	-86.7611	36.5913	92.1199	-143.189	34.5444	78.7035	-115.729	36.4193	63.7137	-86.1525	22.9669	71.3719	-151.489	16.0162	61.2717	-130.693	16.2545	40.571	-99.5955	15.3466	30.313	-158.242	-8.80329	62.7761	-142.91	-1.10893	36.0945	-120.937	-1.27745	17.9546	-156.126	-30.4283	72.7946	-149.67	-26.2533	46.5554	-136.924	-25.032	23.8013	-175.517	-20.1738	109.378	-182.421	-25.855	136.744	-175.613	7.19817	133.415	
126	1.05	-146.68	26.4917	154.258	-122.945	33.4026	140.489	-105.209	48.5675	118.114	-96.052	48.5433	96.5687	-145.218	43.0214	81.2599	-119.217	44.4586	70.577	-89.3577	29.1036	79.6247	-157.92	19.9431	70.9335	-138.402	28.5245	49.0169	-107.378	28.9148	37.2916	-160.568	-0.626516	63.4541	-146.65	4.53603	42.7824	-125.973	9.28821	25.3136	-159.516	-24.9429	75.4511	-152.783	-17.6385	53.9317	-137.155	-14.5242	29.0378	-179.921	-13.2978	111.937	-183.517	-23.9774	144.533	-181.25	9.92295	135.184	
127	1.05833	-151.469	32.6668	162.896	-124.686	45.4271	150.565	-112.139	55.1451	128.2	-100.543	61.0093	102.017	-148.236	50.4067	90.1626	-122.533	55.2266	80.5699	-91.6714	40.9091	88.7485	-158.06	35.7248	76.2374	-137.192	39.8291	56.0538	-105.921	40.4236	45.069	-162.185	11.51	72.2474	-148.58	14.9191	50.2554	-124.569	26.1983	31.7905	-160.608	-14.5982	80.1227	-152.529	-10.8969	56.8946	-137.724	-0.865113	34.7247	-181.512	-6.28831	122.958	-187.334	-15.9824	145.388	-183.545	15.8347	141.281	
128	1.06667	-153.955	38.4819	171.577	-128.363	52.5653	158.665	-115.059	65.087	136.475	-104.784	69.66	115.742	-152.119	59.2835	101.461	-122.471	64.276	89.7167	-96.9679	56.414	98.2161	-158.896	43.5157	83.4461	-139.028	52.082	64.3351	-108.219	50.2114	54.4429	-163.701	22.2252	78.0563	-151.324	27.7153	58.6433	-125.426	37.9773	40.2839	-161.946	-1.19261	89.2078	-153.545	2.87289	62.39	-138.096	15.5297	41.202	-182.105	2.28854	126.37	-189.664	-10.7308	153.549	-186.175	24.6706	153.558	
129	1.075	-154.606	46.4289	177.935	-130.373	59.5614	163.712	-117.565	75.1423	140.948	-110.329	76.8669	122.806	-153.386	72.358	111.682	-121.665	76.0125	97.8987	-97.7161	65.5248	105.039	-161.928	51.3706	91.5144	-139.676	62.5555	71.1647	-109.98	62.3498	60.2661	-165.449	32.81	84.8008	-152.559	39.5975	62.5336	-128.238	48.4436	46.7679	-165.014	8.07048	91.6577	-156.484	17.2312	68.3326	-142.033	27.6396	45.7335	-184.865	12.1506	132.284	-191.247	0.521989	158.466	-185.573	35.6301	158.2	
130	1.08333	-155.527	51.9337	179.904	-131.993	68.0371	165.683	-118.731	80.6276	145.571	-111.137	85.7311	123.902	-154.705	79.1323	116.135	-125.311	81.1199	99.8828	-97.8188	66.6692	109.718	-163.425	62.9202	96.8653	-143.461	69.8643	75.8947	-112.96	70.5974	66.1529	-169.149	38.1891	92.1251	-152.843	52.5059	66.927	-128.436	58.6665	50.2699	-166.56	19.0755	94.0114	-158.695	25.7722	72.9498	-144.037	33.5002	49.9345	-187.386	19.2811	131.966	-190.447	5.13445	160.498	-187.318	39.3321	164.282	
131	1.09167	-156.199	52.1813	183.038	-133.295	68.6644	168.363	-120.552	83.3391	150.523	-112.96	86.8274	125.855	-154.377	82.0013	115.298	-129.541	85.3951	101.939	-102.411	68.6655	109.223	-165.264	67.014	97.2642	-143.967	74.2686	77.6895	-111.243	72.114	67.3498	-169.44	44.072	92.603	-155.627	52.9004	67.4329	-132.392	58.6485	52.4672	-168.217	24.4109	97.931	-159.903	28.1144	73.3989	-145.933	36.7325	48.3601	-187.93	20.1684	136.4	-193.719	10.6772	163.365	-187.986	41.1834	166.069	
132	1.1	-157.838	55.6947	183.802	-133.179	73.5231	170.587	-122.759	86.7674	149.691	-114.997	89.9761	129.155	-156.515	81.5252	116.79	-129.183	84.1543	102.098	-102.684	71.9857	111.191	-165.594	68.4233	98.2666	-144.282	73.4966	78.0195	-110.465	73.2258	69.1871	-170.805	49.9632	94.7309	-155.87	55.313	69.0489	-134.02	64.4114	55.3798	-169.395	25.9547	99.3566	-160.622	31.9597	74.0113	-146.135	38.9523	51.6572	-186.846	25.4069	137.531	-194.204	10.3705	168.234	-189.089	47.6468	164.308	
133	1.10833	-157.777	57.5218	187.152	-135.239	71.3608	175.737	-123.936	83.359	152.894	-115.411	90.3032	127.164	-158.233	82.1017	120.879	-130.791	83.3522	105.521	-102.069	70.4491	114.695	-166.981	66.1159	102.029	-145.356	76.5021	83.1782	-114.677	72.3599	71.5874	-173.42	41.9839	97.7114	-159.095	55.0042	74.6784	-133.271	63.8821	57.2433	-170.729	20.6197	100.099	-163.202	26.7277	76.4496	-150.208	37.7142	57.0284	-190.704	21.881	143.42	-195.228	8.58257	168.574	-190.691	42.3032	168.268	
134	1.11667	-158.2	50.5957	189.381	-136.248	66.5264	171.068	-124.646	79.4204	151.445	-115.981	84.5667	129.965	-159.318	77.6252	120.686	-127.83	84.0439	108.472	-104.897	66.6474	114.102	-167.443	64.8917	104.172	-148.303	70.6315	83.7352	-112.72	72.9656	75.344	-173.74	39.4558	97.989	-159.159	51.6984	74.4564	-133.096	57.4692	56.2859	-172.595	18.4013	98.1567	-163.187	28.197	77.0451	-149.921	36.8948	57.0242	-188.274	19.536	139.997	-196.051	8.92165	166.599	-191.553	41.9713	168.18	
135	1.125	-157.657	48.6256	191.32	-133.882	64.6967	175.753	-121.458	78.7105	152.17	-111.946	86.3858	131.343	-154.959	77.9278	118.403	-127.066	78.6452	106.741	-101.853	63.4409	115.501	-165.706	62.2896	104.191	-145.601	70.6768	85.4414	-108.899	66.5472	73.862	-170.275	42.9518	97.6614	-155.392	47.8633	71.4596	-131.583	56.9651	57.951	-168.87	16.4957	103.477	-160.5	23.3939	75.7246	-147.93	30.5652	55.1955	-188.163	18.6665	142.662	-192.978	2.57538	163.917	-189.314	39.2625	168.848	
136	1.13333	-154.797	46.963	184.382	-130.864	64.1451	171.427	-117.967	77.5327	155.736	-109.025	84.698	130.202	-151.89	76.5712	117.814	-125.32	77.0378	105.469	-99.9882	62.4995	113.792	-162.46	60.5003	102.434	-139.785	68.6374	83.2836	-105.651	68.431	76.2973	-166.955	36.4033	97.4863	-153.82	44.1397	74.9519	-126.321	51.4089	56.4401	-166.009	14.8769	97.3356	-156.365	16.8117	75.6123	-140.749	28.0164	52.6936	-184.699	16.3352	144.359	-190.971	0.683261	164.989	-186.764	35.7798	166.416	
137	1.14167	-151.766	42.5705	183.388	-127.354	58.5854	172.74	-115.263	71.5378	149.704	-106.254	77.926	127.479	-151.151	70.2561	118.936	-119.978	76.0751	106.802	-93.9139	61.7806	116.438	-158.535	53.1409	104.192	-134.67	62.8418	81.2744	-102.771	59.1891	72.6	-163	28.6259	96.4876	-147.819	35.6984	72.0238	-120.763	47.3052	56.6619	-160.493	9.52665	98.1162	-149.63	12.7506	74.3493	-138.619	19.9537	55.1448	-181.603	10.8672	141.997	-185.063	-4.0809	166.168	-183.26	33.7667	166.43	
138	1.15	-144.501	35.8622	185.397	-121.452	51.2164	170.358	-107.896	69.0169	146.803	-99.5196	73.4038	126.549	-143.551	64.1242	115.313	-113.398	65.5978	102.584	-86.2512	53.9269	115.805	-151.376	45.4107	97.8127	-127.358	53.8996	79.4758	-97.094	53.1881	71.4374	-156.71	23.1787	96.8341	-140.848	31.4766	72.0057	-116.209	34.7738	55.845	-153.564	5.47893	97.6573	-143.357	6.27734	73.5219	-132.363	13.5135	55.2607	-175.642	3.98276	136.696	-178.831	-9.75881	168.242	-175.89	28.7749	164.432	
139	1.15833	-139.533	38.7728	184.477	-116.704	52.9275	168.415	-105.108	64.8258	146.561	-97.9491	68.3017	127.29	-138.126	64.2398	115.863	-107.814	66.3143	104.304	-84.5081	51.7951	112.538	-146.062	42.048	95.5537	-126.302	49.9442	80.2527	-93.7863	52.3088	72.5723	-149.989	21.3985	94.1258	-133.417	28.2111	69.1865	-109.174	37.1107	56.3431	-148.923	-0.879296	101.938	-139.69	2.80433	76.6978	-123.25	10.8076	53.8341	-169.351	1.53046	142.338	-174.928	-10.1464	163.046	-171.433	22.6957	165.768	
140	1.16667	-141.098	39.9133	184.213	-116.926	54.951	171.922	-104.197	68.5135	149.803	-95.027	73.0759	125.318	-137.707	62.8137	114.927	-107.352	66.0319	103.837	-82.911	53.0754	113.364	-146.385	45.2378	101.392	-124.531	51.3036	80.0503	-89.9243	54.5796	73.9944	-150.498	25.0065	96.1336	-132.768	33.5952	70.4459	-108.668	41.1372	58.3616	-147.766	1.87036	100.31	-138.554	5.92104	77.0716	-125.484	15.6099	58.3688	-168.103	3.94858	141.718	-173.636	-9.27442	169.228	-172.896	29.6257	165.266	
141	1.175	-143.373	43.5618	187.359	-119.82	56.0368	171.631	-105.369	73.0216	153.971	-97.6332	73.5776	131.704	-141.78	67.528	119.497	-114.72	70.9597	106.13	-84.0393	59.4241	117.33	-150.804	46.5484	101.531	-125.041	59.154	80.6833	-95.4661	59.5651	74.5581	-153.344	25.5771	93.588	-137.744	32.6055	72.3928	-114.314	39.638	58.6785	-151.449	4.09719	97.6037	-142.488	7.68441	78.8895	-126.871	18.8823	54.3616	-170.335	8.04955	138.81	-177.354	-5.96755	164.838	-173.6	28.1457	166.136	
142	1.18333	-144.983	44.4994	191.123	-120.354	57.4418	174.351	-104.661	71.9172	155.454	-95.6468	73.3755	132.601	-145.271	68.7397	119.638	-115.852	70.5401	105.695	-89.7299	59.4696	115.335	-151.471	52.0028	102.062	-130.251	57.6036	81.2196	-95.31	57.9165	74.8865	-155.898	29.2088	98.4593	-140.32	34.1793	73.2954	-113.639	47.9034	59.6626	-152.806	4.72891	98.1518	-143.457	12.3706	79.4319	-128.957	16.6701	55.9165	-173.15	9.3349	141.754	-179.84	-6.4133	164.343	-177.032	27.9461	167.324	
143	1.19167	-146.258	45.3112	190.138	-119.799	56.089	175.516	-102.971	70.7457	159.452	-92.2085	73.0444	136.419	-144.135	70.2203	121.817	-116.808	74.7368	108.387	-88.8041	63.4541	118.308	-151.422	50.4975	100.515	-128.363	58.8134	81.8217	-96.0716	63.923	76.9666	-155.158	28.7327	99.5162	-137.443	36.7999	72.6151	-117.192	45.4774	61.2474	-151.432	4.60795	103.743	-142.066	13.7024	80.4925	-124.832	20.324	56.2302	-174.384	12.0855	141.383	-179.211	-6.8016	165.811	-175.877	27.9214	167.692	
144	1.2	-145.883	45.489	190.348	-117.879	60.6567	176.721	-100.473	71.7354	159.036	-87.2391	75.9445	136.24	-144.645	71.7072	121.942	-114.909	78.8409	111.826	-85.3719	67.9301	120.804	-152.259	51.8067	103.069	-131.431	60.988	84.0209	-96.83	68.12	77.4486	-153.147	33.762	96.2137	-140.117	38.9087	76.8804	-113.26	48.3507	59.0444	-150.046	10.4056	104.877	-139.427	15.28	78.866	-127.692	20.8342	59.624	-173.374	12.7077	142.296	-179.93	-4.50668	166.695	-176.088	32.8864	166.303	
145	1.20833	-146.338	52.0139	183.142	-118.541	61.312	170.843	-99.9939	72.9243	151.57	-87.9372	75.931	131.325	-143.026	75.1949	115.2	-117.872	80.0162	105.925	-90.1062	72.1888	111.916	-153.755	53.0321	99.0228	-133.229	62.0479	78.9762	-98.8534	70.9721	70.3077	-156.636	35.1148	96.9311	-141.556	41.4595	70.5802	-117.008	52.5126	55.3184	-154.078	11.0483	95.0635	-143.29	15.769	75.1261	-129.687	23.6232	53.6058	-173.689	11.747	137.906	-181.944	-2.97959	162.068	-178.333	34.787	164.617	
146	1.21667	-151.791	50.5397	167.52	-123.478	60.3671	153.41	-103.902	75.3134	140.471	-94.2071	74.8634	116.137	-150.186	74.0062	99.4442	-125.046	81.6311	90.9199	-91.6308	70.3855	97.0352	-162.093	57.3843	85.9807	-140.877	63.1678	63.8251	-110.435	68.4896	54.3067	-165.37	36.9504	79.9392	-150.452	43.7382	54.0659	-131.392	49.3849	40.5571	-161.28	12.5076	84.7573	-154.62	19.8523	63.4779	-141.996	28.5728	39.7663	-180.096	15.2584	126.813	-187.762	2.35417	149.888	-186.478	36.5383	150.188	
147	1.225	-157.924	57.3544	147.428	-129.157	65.7004	134.888	-114.143	72.9892	114.176	-100.823	76.8344	91.9726	-161.136	77.9762	80.3942	-134.317	79.0265	66.2914	-106.104	67.9889	72.3626	-173.113	56.7239	64.4054	-156.208	64.1196	43.1907	-127.09	66.0983	30.0563	-179.025	35.7106	63.7441	-167.39	44.8595	37.2992	-145.992	48.1881	16.2514	-177.669	13.3108	67.5046	-169.496	21.6425	43.0876	-158.393	26.2169	19.2641	-192.065	19.6007	106.84	-198.215	9.93114	139.118	-192.222	46.5941	135.494	
148	1.23333	-162.271	61.266	141.74	-133.927	66.3972	123.065	-117.882	72.0856	104.183	-106.348	70.1317	79.5939	-167.217	78.3077	70.357	-141.586	75.4227	52.4561	-113.863	57.603	60.4427	-181.962	65.5471	58.0338	-165.583	69.2784	31.9231	-138.735	63.8531	13.33	-190.52	41.7442	53.3904	-181.268	48.8942	28.2975	-160.967	54.4739	5.96598	-190.425	20.5276	59.4276	-185.289	25.5716	34.0134	-176.965	26.6542	8.08387	-202.428	28.7988	98.7985	-209.49	20.8643	132.252	-198.462	53.4512	125.113	
